<svg xmlns="http://www.w3.org/2000/svg" width="24" height="8" viewBox="0 0 24 8" shape-rendering="crispEdges">
  <g id="missile" transform="scale(-1 1) translate(-24 0)">
    <g id="tip">
      <polygon fill="white"     points="2,3 2,4 0,4"/>
      <polygon fill="lightgray" points="0,4 2,4 2,5"/>
    </g>
    <g id="body">
      <rect fill="lightgray" x="2" y="3" width="21" height="1"/>
      <rect fill="silver"    x="2" y="4" width="21" height="1"/>
    </g>
    <g id="mark">
      <rect fill="#36c" x="7" y="3" width="2" height="1"/>
      <rect fill="#039" x="7" y="4" width="2" height="1"/>
    </g>
    <g id="fins">
      <polygon fill="darkgray" points="10,3 13,3 13,0"/>
      <polygon fill="darkgray" points="10,5 13,5 13,8"/>

      <polygon fill="darkgray" points="20,3 24,3 24,1"/>
      <polygon fill="darkgray" points="20,5 24,5 24,7"/>

      <polygon fill="darkgray" points="20,4 23,4 22,5 21,5"/>

      <polygon fill="gray"     points="10,5 11,6 12,5"/>
      <polygon fill="gray"     points="20,5 22,6 23,5"/>
    </g>
  </g>
</svg>
